<svg xmlns="http://www.w3.org/2000/svg" viewBox="0 0 1080 1350" width="1080" height="1350">
  <defs>
    <style>
      @import url('https://fonts.googleapis.com/css2?family=DM+Serif+Display:wght@700&amp;family=Inter:wght@400;500;600&amp;display=swap');
      .headline { font-family: 'DM Serif Display', serif; font-weight: 700; font-size: 64px; fill: #FFFAF0; }
      .bullet { font-family: 'Inter', sans-serif; font-weight: 500; font-size: 38px; fill: #FFFAF0; }
      .arrow { font-family: 'Inter', sans-serif; font-weight: 600; font-size: 38px; fill: #FFD23F; }
    </style>
  </defs>
  <defs>
  <filter id="mesh-blur" x="-50%" y="-50%" width="200%" height="200%">
    <feGaussianBlur stdDeviation="120" />
  </filter>
</defs>
<rect x="0" y="0" width="1080" height="1350" fill="#1A0F2E"/>
<g filter="url(#mesh-blur)">
  <circle cx="15%" cy="25%" r="50%" fill="#4A1D5C" opacity="0.5"/>
  <circle cx="85%" cy="75%" r="55%" fill="#6B2D7A" opacity="0.45"/>
  <circle cx="50%" cy="50%" r="30%" fill="#FFD23F" opacity="0.15"/>
  <circle cx="0" cy="0" r="0" fill="#000" opacity="0"/>
  <circle cx="0" cy="0" r="0" fill="#000" opacity="0"/>
</g>
<defs>
  <filter id="grain-filter" x="0%" y="0%" width="100%" height="100%">
    <feTurbulence type="fractalNoise" baseFrequency="0.9" numOctaves="2" stitchTiles="stitch"/>
    <feColorMatrix type="matrix" values="0 0 0 0 0  0 0 0 0 0  0 0 0 0 0  0 0 0 0.1 0"/>
  </filter>
</defs>
<rect x="0" y="0" width="1080" height="1350" filter="url(#grain-filter)" pointer-events="none"/>

  <text x="100" y="240" class="headline">Why they don&apos;t convert</text>
  <g transform="translate(100, 430)">
    <text x="0" y="0" class="arrow">→</text><text x="50" y="0" class="bullet">You gave away the what, not the how</text>
    <text x="0" y="90" class="arrow">→</text><text x="50" y="90" class="bullet">It solves a problem they don&apos;t know they have</text>
    <text x="0" y="180" class="arrow">→</text><text x="50" y="180" class="bullet">The follow-up treats them like a cold lead</text>
    <text x="0" y="270" class="arrow">→</text><text x="50" y="270" class="bullet">No next step after the PDF lands</text>
    <text x="0" y="360" class="arrow">→</text><text x="50" y="360" class="bullet">The offer has nothing to do with the magnet</text>
  </g>
  <rect x="100" y="1250" width="880" height="4" rx="2" fill="#9A9A9A" opacity="0.3"/>
<rect x="100" y="1250" width="352" height="4" rx="2" fill="#FFD23F"/>

</svg>
